<svg width="600" height="338" viewBox="0 0 600 338" fill="none" xmlns="http://www.w3.org/2000/svg">
  <rect width="600" height="338" fill="white"/>
  <path d="M300 240C382.843 240 450 186.274 450 120C450 53.7258 382.843 0 300 0C217.157 0 150 53.7258 150 120C150 148.892 162.943 175.267 184.5 195L165 255L240 232.5C258.75 237.375 279 240 300 240Z" transform="translate(0, 40)" fill="black"/>
  <path d="M300 62.5L320 102.5L360 107.5L330 137.5L340 177.5L300 157.5L260 177.5L270 137.5L240 107.5L280 102.5L300 62.5Z" transform="translate(0, 40)" fill="white"/>
</svg>
